# AST/ASF file generated using VICON BodyLanguage
# -----------------------------------------------
:version 1.10
:name VICON
:units
  mass 1.0
  length 0.45
  angle deg
:documentation
   .ast/.asf automatically generated from VICON data using
   VICON BodyBuilder and BodyLanguage model FoxedUp or BRILLIANT.MOD
:root
   order TX TY TZ RX RY RZ
   axis XYZ
   position 0 0 0  
   orientation 0 0 0 
:bonedata
  begin
     id 1 
     name lhipjoint
     direction 0.650112 -0.723553 0.232005 
     length 2.45805 
     axis 0 0 0  XYZ
  end
  begin
     id 2 
     name lfemur
     direction 0.34202 -0.939693 0  
     length 7.00073  
     axis 0 0 20  XYZ
    dof rx ry rz
    limits (-160.0 20.0)
           (-70.0 70.0)
           (-60.0 70.0)
  end
  begin
     id 3 
     name ltibia
     direction 0.34202 -0.939693 0   
     length 7.8748   
     axis 0 0 20   XYZ
    dof rx
    limits (-10.0 170.0)
  end
  begin
     id 4 
     name lfoot
     direction 0.0542825 -0.14914 0.987325   
     length 1.75978   
     axis -90 7.62852e-016 20   XYZ
    dof rx rz
    limits (-45.0 90.0)
           (-70.0 20.0)
  end
  begin
     id 5 
     name ltoes
     direction 1.53509e-011 -4.21906e-011 1   
     length 0.893912   
     axis -90 7.62852e-016 20   XYZ
    dof rx
    limits (-90.0 20.0)
  end
  begin
     id 6 
     name rhipjoint
     direction -0.637897 -0.733345 0.235145   
     length 2.42522  
     axis 0 0 0  XYZ 
  end
  begin
     id 7 
     name rfemur
     direction -0.34202 -0.939693 0   
     length 7.02549   
     axis 0 0 -20   XYZ
    dof rx ry rz
    limits (-160.0 20.0)
           (-70.0 70.0)
           (-70.0 60.0)
  end
  begin
     id 8 
     name rtibia
     direction -0.34202 -0.939693 0   
     length 7.71512   
     axis 0 0 -20   XYZ
    dof rx
    limits (-10.0 170.0)
 end
 begin
     id 9 
     name rfoot
     direction -0.0822618 -0.226012 0.970645   
     length 1.90014  
     axis -90 -7.62852e-016 -20   XYZ
    dof rx rz
    limits (-45.0 90.0)
           (-20.0 70.0)
  end
  begin
     id 10 
     name rtoes
     direction -1.53542e-011 -4.21872e-011 1   
     length 0.957341   
     axis -90 -7.62852e-016 -20   XYZ
    dof rx
    limits (-90.0 20.0)
  end
  begin
     id 11 
     name lowerback
     direction -0.0022947 0.999774 -0.0211557   
     length 1.89909   
     axis 0 0 0   XYZ
    dof rx ry rz
    limits (-20.0 45.0)
           (-30.0 30.0)
           (-30.0 30.0)
  end
  begin
     id 12 
     name upperback
     direction 0.0107737 0.998635 0.0511027   
     length 1.8853   
     axis 0 0 0   XYZ
    dof rx ry rz
    limits (-20.0 45.0)
           (-30.0 30.0)
           (-30.0 30.0)
  end
  begin
     id 13 
     name thorax
     direction 0.011824 0.998136 0.0598754   
     length 1.88911   
     axis 0 0 0   XYZ
    dof rx ry rz
    limits (-20.0 45.0)
           (-30.0 30.0)
           (-30.0 30.0)
  end
  begin
     id 14 
     name lowerneck
     direction -0.0685355 0.990319 0.120714   
     length 1.91222   
     axis 0 0 0   XYZ
    dof rx ry rz
    limits (-20.0 45.0)
           (-30.0 30.0)
           (-30.0 30.0)
  end
  begin
     id 15 
     name upperneck
     direction 0.0886204 0.955665 -0.280805   
     length 1.92526   
     axis 0 0 0   XYZ
    dof rx ry rz
    limits (-20.0 45.0)
           (-30.0 30.0)
           (-30.0 30.0)
  end
  begin
     id 16
     name head
     direction 0.0233423 0.993502 -0.111393  
     length 1.96056  
     axis 0 0 0   XYZ
    dof rx ry rz
    limits (-20.0 45.0)
           (-30.0 30.0)
           (-30.0 30.0)
  end
  begin
     id 17 
     name lclavicle
     direction 0.941873 0.32922 0.0670041  
     length 3.31705  
     axis 0 0 0   XYZ
    dof ry rz
    limits (-20.0 10.0)
           (0.0 20.0)
  end
  begin
     id 18 
     name lhumerus
     direction 1 -4.4898e-011 3.38707e-028   
     length 5.29277   
     axis 180 -30 -90   XYZ
    dof rx ry rz
    limits (-60.0 90.0)
           (-90.0 90.0)
           (-90.0 90.0)
  end
  begin
     id 19
     name lradius
     direction 1 -4.48952e-011 1.63213e-028   
     length 2.85226   
     axis 180 -30 -90   XYZ
    dof rx
    limits (-10.0 170.0)
  end
  begin
     id 20
     name lwrist
     direction 1 -4.49001e-011 1.27856e-027   
     length 1.42613   
     axis -1.61767e-015 90 90   XYZ
    dof ry
    limits (-180.0 0.0)
 end
  begin
     id 21 
     name lhand
     direction 1 -4.48976e-011 2.55931e-027   
     length 0.602097   
     axis -1.63363e-015 90 90   XYZ
    dof rx rz
    limits (-90.0 90.0)
           (-45.0 45.0)
  end
  begin
     id 22 
     name lfingers
     direction 1 -4.48986e-011 5.11684e-027   
     length 0.485426   
     axis -3.26723e-015 90 90   XYZ
    dof rx
    limits (0.0 90.0)
  end
  begin
     id 23
     name lthumb
     direction 0.707107 -6.34915e-011 0.707107   
     length 0.696978   
     axis -90 45 -2.25915e-014   XYZ
    dof rx rz
    limits (-45.0 45.0)
           (-45.0 45.0)
  end
  begin
     id 24 
     name rclavicle
     direction -0.939974 0.327078 0.0973096   
     length 3.10337  
     axis 0 0 0   XYZ 
    dof ry rz
    limits (-10.0 20.0)
           (-20.0 0.0)
  end
  begin
     id 25 
     name rhumerus
     direction -1 -4.48975e-011 1.83745e-027  
     length 5.13304   
     axis 180 30 90   XYZ
    dof rx ry rz
    limits (-90.0 60.0)
           (-90.0 90.0)
           (-90.0 90.0)
  end
  begin
     id 26 
     name rradius
     direction -1 -4.48977e-011 7.1775e-029   
     length 2.74305   
     axis 180 30 90   XYZ
    dof rx
    limits (-10.0 170.0)
  end
  begin
     id 27 
     name rwrist
     direction -1 -4.48977e-011 1.27963e-027   
     length 1.37152   
     axis -1.61767e-015 -90 -90   XYZ
    dof ry
    limits (-180.0 0.0)
  end
  begin
     id 28
     name rhand
     direction -1 -4.4888e-011 2.56782e-027   
     length 0.767976   
     axis -1.63363e-015 -90 -90   XYZ
    dof rx rz
    limits (-90.0 90.0)
           (-45.0 45.0)
  end
  begin
     id 29
     name rfingers
     direction -1 -4.48947e-011 5.12384e-027   
     length 0.619162   
     axis -3.26723e-015 -90 -90   XYZ
    dof rx
    limits (0.0 90.0)
  end
  begin
     id 30
     name rthumb
     direction -0.707107 -6.34857e-011 0.707107   
     length 0.888997   
     axis -90 -45 2.25915e-014   XYZ
    dof rx rz
    limits (-45.0 45.0)
           (-45.0 45.0)
  end
:hierarchy
  begin
    root lhipjoint rhipjoint lowerback
    lhipjoint lfemur
    lfemur ltibia
    ltibia lfoot
    lfoot ltoes
    rhipjoint rfemur
    rfemur rtibia
    rtibia rfoot
    rfoot rtoes
    lowerback upperback
    upperback thorax
    thorax lowerneck lclavicle rclavicle
    lowerneck upperneck
    upperneck head
    lclavicle lhumerus
    lhumerus lradius
    lradius lwrist
    lwrist lhand lthumb
    lhand lfingers
    rclavicle rhumerus
    rhumerus rradius
    rradius rwrist
    rwrist rhand rthumb
    rhand rfingers
  end

#!OML:ASF F:\VICON\USERDATA\INSTALL\rory3\rory3.ASF
:FULLY-SPECIFIED
:DEGREES
273
root 1.10713 17.1257 -1.99724 11.7614 6.80331 9.6082
lowerback 18.1703 0.197791 7.12702
upperback 8.9045 1.7949 11.8014
thorax -0.687578 0.874419 8.4225
lowerneck 5.55008 -6.42118 -6.35263
upperneck 13.384 -11.6505 28.4514
head 5.04257 -4.93976 10.1042
rclavicle 2.22639e-014 6.67916e-014
rhumerus 57.2364 -9.72794 -85.2118
rradius 146.706
rwrist 29.8966
rhand 18.1591 6.46791
rfingers 7.12502
rthumb 42.8165 -17.8426
lclavicle 2.22639e-014 6.67916e-014
lhumerus 91.0933 15.9144 38.7661
lradius 126.575
lwrist -15.4642
lhand 15.5872 40.863
lfingers 7.12502
lthumb 40.4041 65.9659
rfemur -26.3283 3.47205 1.89728
rtibia 33.086
rfoot -15.3525 -13.72
rtoes -29.8787
lfemur -23.9018 -11.2767 -29.7125
ltibia 21.4803
lfoot -7.22781 -1.71664
ltoes -14.8159
274
root 1.1013 17.1333 -2.00365 12.1183 6.6159 9.61576
lowerback 18.2959 0.136673 7.11005
upperback 8.86465 1.73871 11.8933
thorax -0.793008 0.842174 8.55038
lowerneck 5.45897 -6.32683 -6.41233
upperneck 12.4525 -11.3059 28.3656
head 4.70534 -4.85458 10.0605
rclavicle -1.90833e-014 7.31528e-014
rhumerus 58.0849 -9.95795 -85.435
rradius 147.137
rwrist 30.2626
rhand 19.4915 6.78095
rfingers 7.12502
rthumb 44.0611 -17.0791
lclavicle -1.90833e-014 7.31528e-014
lhumerus 91.2949 16.2616 39.1611
lradius 126.949
lwrist -15.8132
lhand 15.6483 40.9968
lfingers 7.12502
lthumb 40.4616 66.0819
rfemur -26.7556 3.67189 1.81785
rtibia 32.9479
rfoot -15.2458 -13.7978
rtoes -29.2995
lfemur -24.1652 -11.2134 -29.631
ltibia 21.1267
lfoot -7.00732 -1.66994
ltoes -14.8772
275
root 1.09323 17.1404 -2.00672 12.4296 6.41644 9.69925
lowerback 18.4189 0.102587 6.98756
upperback 8.83631 1.69853 11.968
thorax -0.889507 0.815823 8.71684
lowerneck 5.00942 -6.189 -6.98726
upperneck 12.1046 -11.1345 28.8615
head 4.70857 -4.78675 10.341
rclavicle -9.54166e-015 2.8625e-014
rhumerus 58.8982 -10.0239 -85.3289
rradius 147.169
rwrist 30.2013
rhand 19.082 7.17008
rfingers 7.12502
rthumb 43.679 -16.8315
lclavicle -9.54166e-015 2.8625e-014
lhumerus 91.5007 16.6128 39.5638
lradius 127.291
lwrist -16.1638
lhand 15.5087 40.9422
lfingers 7.12502
lthumb 40.3302 66.0678
rfemur -27.097 3.91861 1.65756
rtibia 32.8003
rfoot -15.1125 -13.9071
rtoes -28.9539
lfemur -24.3346 -11.201 -29.6215
ltibia 20.7406
lfoot -6.88159 -1.58187
ltoes -15.3966
276
root 1.08643 17.1484 -2.00585 12.6766 6.38676 9.80016
lowerback 18.5119 0.0399325 6.99026
upperback 8.7713 1.64343 12.0356
thorax -1.00426 0.786653 8.80549
lowerneck 5.21859 -5.86334 -6.76302
upperneck 10.7679 -10.3129 28.386
head 4.0661 -4.52072 10.1204
rclavicle -5.08889e-014 -3.18055e-014
rhumerus 59.5017 -9.98267 -84.6815
rradius 146.76
rwrist 30.0061
rhand 16.1709 6.99362
rfingers 7.12502
rthumb 40.9527 -17.9378
lclavicle -5.08889e-014 -3.18055e-014
lhumerus 91.8129 16.7794 40.0583
lradius 127.618
lwrist -16.5862
lhand 15.6249 40.7534
lfingers 7.12502
lthumb 40.4395 65.8454
rfemur -27.2732 4.06055 1.5172
rtibia 32.6499
rfoot -14.9383 -14.0843
rtoes -29.0093
lfemur -24.3615 -11.3815 -29.6148
ltibia 20.2861
lfoot -6.74983 -1.45581
ltoes -17.8616
277
root 1.08249 17.161 -2.00271 12.8583 6.57098 9.83492
lowerback 18.6654 -0.0793115 7.30745
upperback 8.65532 1.58079 12.0303
thorax -1.19364 0.763488 8.62975
lowerneck 4.61148 -6.16176 -7.20606
upperneck 10.7644 -10.8382 29.1555
head 4.35248 -4.72981 10.4489
rclavicle 6.67916e-014 2.8625e-014
rhumerus 60.0455 -10.2805 -84.2773
rradius 146.731
rwrist 29.8999
rhand 14.3964 6.15628
rfingers 7.12502
rthumb 39.2832 -19.282
lclavicle 6.67916e-014 2.8625e-014
lhumerus 92.3392 16.7285 40.5859
lradius 127.995
lwrist -17.2008
lhand 15.985 40.4173
lfingers 7.12502
lthumb 40.778 65.4039
rfemur -27.3133 4.04655 1.51286
rtibia 32.504
rfoot -14.5431 -14.3567
rtoes -29.8628
lfemur -24.2856 -11.6086 -29.5396
ltibia 19.796
lfoot -6.57537 -1.47912
ltoes -18.9437
278
root 1.07718 17.1719 -1.99931 13.0247 6.62703 9.92201
lowerback 18.743 -0.164248 7.58013
upperback 8.63834 1.52565 11.9435
thorax -1.23632 0.74381 8.3844
lowerneck 4.91858 -5.797 -6.30273
upperneck 8.96817 -9.7796 28.1153
head 3.45648 -4.37872 9.89607
rclavicle 2.8625e-014 -3.18055e-014
rhumerus 60.7306 -10.6842 -84.2779
rradius 146.982
rwrist 29.9832
rhand 14.4024 5.61139
rfingers 7.12502
rthumb 39.2888 -19.8253
lclavicle 2.8625e-014 -3.18055e-014
lhumerus 92.8895 16.8091 41.0551
lradius 128.498
lwrist -17.8243
lhand 16.1202 40.2693
lfingers 7.12502
lthumb 40.905 65.2158
rfemur -27.3772 4.13704 1.41479
rtibia 32.3424
rfoot -14.1679 -14.5853
rtoes -30.8653
lfemur -24.1924 -11.7524 -29.5426
ltibia 19.3063
lfoot -6.31527 -1.49138
ltoes -19.0416
